<svg preserveAspectRatio="none" overflow="visible" style="display: block;" width="151.47" height="126" viewBox="0 0 151.47 126" fill="none" xmlns="http://www.w3.org/2000/svg">
<path id="Union" d="M0.0393712 121.07C0.376221 118.671 2.78956 116.98 5.42316 117.286C8.06216 117.592 9.92298 119.781 9.58625 122.18C9.24945 124.579 6.84162 126.27 4.20246 125.964C1.56348 125.658 -0.297411 123.469 0.0393712 121.07ZM97.6341 0C111.71 9.59973e-05 123.869 8.18852 129.6 20.0576C142.368 24.784 151.47 37.0612 151.47 51.459L151.464 51.4775C151.464 58.2243 149.46 64.4988 146.024 69.7568C146.515 71.9013 146.781 74.1345 146.781 76.4326C146.781 91.7227 135.271 104.324 120.439 106.085C113.963 113.05 104.719 117.417 94.4466 117.417C87.3438 117.417 80.7313 115.32 75.1839 111.728C71.2155 113.529 66.809 114.54 62.1605 114.54C49.2443 114.54 38.1432 106.783 33.2581 95.6816C22.3763 90.8193 14.7944 79.9187 14.7943 67.2402C14.7943 56.4227 20.3184 46.8927 28.6986 41.3096C28.598 40.2816 28.5452 39.2352 28.5452 38.1836C28.5454 20.1346 43.1945 5.50098 61.262 5.50098C66.0643 5.50099 70.6186 6.54039 74.723 8.39551C80.9032 3.1611 88.899 0 97.6341 0ZM11.4515 106.018C12.0997 100.985 16.7003 97.4282 21.7327 98.0762C26.7653 98.7243 30.3223 103.325 29.6741 108.357C29.026 113.39 24.4254 116.947 19.3929 116.299C14.3605 115.65 10.8033 111.05 11.4515 106.018Z" fill="#D9D9D9"/>
</svg>
