<svg preserveAspectRatio="none" width="100%" height="100%" overflow="visible" style="display: block;" viewBox="0 0 50 38" fill="none" xmlns="http://www.w3.org/2000/svg">
<path id="Vector" d="M47.9766 22.5233C47.4317 22.107 46.807 21.8049 46.1406 21.6356C45.4742 21.4662 44.78 21.4331 44.1002 21.5382C48.012 17.6226 49.9908 13.7297 49.9908 9.91319C49.9908 4.44658 45.5562 0.000193776 40.1051 0.000193776C38.6588 -0.00881193 37.2279 0.296189 35.9131 0.893784C34.5982 1.49138 33.4312 2.36708 32.494 3.45942C31.5569 2.36708 30.3899 1.49138 29.075 0.893784C27.7602 0.296189 26.3293 -0.00881193 24.8829 0.000193776C19.4319 0.000193776 14.9973 4.44658 14.9973 9.91319C14.9973 12.1849 15.6721 14.3926 17.0927 16.7284C15.9292 17.0206 14.8675 17.6201 14.0203 18.4631L9.30871 23.1305H3.33272C2.44883 23.1305 1.60114 23.4786 0.976132 24.0983C0.351125 24.718 0 25.5585 0 26.4348L0 34.6957C0 35.572 0.351125 36.4125 0.976132 37.0322C1.60114 37.6519 2.44883 38 3.33272 38H24.9954C25.1317 37.9999 25.2674 37.9833 25.3995 37.9504L38.7304 34.6461C38.8154 34.626 38.8983 34.5983 38.9783 34.5635L47.0747 31.1476L47.1664 31.1063C47.9445 30.7208 48.6108 30.1453 49.1026 29.4339C49.5943 28.7224 49.8953 27.8986 49.9772 27.04C50.0591 26.1814 49.9192 25.3162 49.5707 24.526C49.2221 23.7358 48.6764 23.0466 47.985 22.5233H47.9766ZM24.8829 3.30452C26.1736 3.2858 27.4405 3.64916 28.5217 4.34814C29.6029 5.04712 30.4493 6.04996 30.9527 7.22842C31.0782 7.53144 31.2918 7.79062 31.5662 7.97303C31.8407 8.15543 32.1636 8.25282 32.494 8.25282C32.8245 8.25282 33.1474 8.15543 33.4219 7.97303C33.6963 7.79062 33.9099 7.53144 34.0354 7.22842C34.5387 6.04996 35.3851 5.04712 36.4664 4.34814C37.5476 3.64916 38.8145 3.2858 40.1051 3.30452C43.6566 3.30452 46.6581 6.33005 46.6581 9.91319C46.6581 13.9424 43.3691 18.5003 37.1474 23.1099L34.8374 23.6365C35.0401 22.7873 35.0464 21.9035 34.8557 21.0516C34.665 20.1996 34.2823 19.4015 33.7362 18.717C33.1901 18.0326 32.4949 17.4795 31.7026 17.0994C30.9103 16.7192 30.0415 16.5218 29.1613 16.5218H20.9712C19.1736 14.1179 18.33 12.0032 18.33 9.91319C18.33 6.33005 21.3315 3.30452 24.8829 3.30452ZM3.33272 26.4348H8.33181V34.6957H3.33272V26.4348ZM45.7062 28.1304L37.791 31.4719L24.7871 34.6957H11.6645V25.4663L16.3782 20.7948C16.6866 20.4866 17.0537 20.2423 17.4581 20.076C17.8625 19.9097 18.2962 19.8248 18.7341 19.8262H29.1613C29.8242 19.8262 30.46 20.0873 30.9288 20.552C31.3975 21.0168 31.6609 21.6472 31.6609 22.3044C31.6609 22.9617 31.3975 23.5921 30.9288 24.0568C30.46 24.5216 29.8242 24.7827 29.1613 24.7827H23.3291C22.8871 24.7827 22.4633 24.9567 22.1508 25.2666C21.8383 25.5764 21.6627 25.9967 21.6627 26.4348C21.6627 26.873 21.8383 27.2933 22.1508 27.6031C22.4633 27.9129 22.8871 28.087 23.3291 28.087H29.9945C30.1199 28.0867 30.2449 28.0728 30.3673 28.0457L44.3231 24.8632L44.3877 24.8467C44.8137 24.7294 45.2684 24.7725 45.6643 24.9677C46.0603 25.1628 46.3694 25.4963 46.5322 25.9038C46.6951 26.3114 46.7002 26.7642 46.5466 27.1753C46.3929 27.5863 46.0914 27.9265 45.7 28.1304H45.7062Z" fill="var(--fill-0, #333333)"/>
</svg>
