<svg preserveAspectRatio="none" width="100%" height="100%" overflow="visible" style="display: block;" viewBox="0 0 40 40" fill="none" xmlns="http://www.w3.org/2000/svg">
<path id="Vector" d="M38.5177 8.89315H33.202L38.0842 4.01303C38.2219 3.87532 38.3311 3.71183 38.4057 3.53191C38.4802 3.35198 38.5186 3.15913 38.5186 2.96438C38.5186 2.76963 38.4802 2.57678 38.4057 2.39686C38.3311 2.21693 38.2219 2.05344 38.0842 1.91573C37.9465 1.77802 37.783 1.66878 37.603 1.59425C37.4231 1.51973 37.2302 1.48137 37.0355 1.48137C36.8407 1.48137 36.6479 1.51973 36.4679 1.59425C36.288 1.66878 36.1245 1.77802 35.9868 1.91573L31.1064 6.7977V1.48219C31.1064 1.08909 30.9503 0.712088 30.6723 0.434124C30.3943 0.156159 30.0173 0 29.6242 0C29.2311 0 28.854 0.156159 28.5761 0.434124C28.2981 0.712088 28.1419 1.08909 28.1419 1.48219V7.51656C25.8833 6.21276 23.2579 5.68986 20.6721 6.02881C18.0863 6.36776 15.6843 7.54966 13.8381 9.39153C6.4083 16.6895 0.822029 34.0478 0.277299 35.7838C0.0204659 36.3351 -0.0605869 36.952 0.0451337 37.5509C0.150854 38.1498 0.438232 38.7017 0.86829 39.1318C1.29835 39.5618 1.85027 39.8492 2.44921 39.9549C3.04814 40.0606 3.6651 39.9795 4.2164 39.7227C5.9525 39.178 23.3338 33.5846 30.6136 26.1588C32.4542 24.3122 33.6349 21.9103 33.9728 19.3251C34.3108 16.7398 33.7872 14.1152 32.4831 11.8575H38.5177C38.9109 11.8575 39.2879 11.7014 39.5659 11.4234C39.8438 11.1454 40 10.7684 40 10.3753C40 9.98223 39.8438 9.60523 39.5659 9.32727C39.2879 9.0493 38.9109 8.89315 38.5177 8.89315ZM28.4903 24.0856C26.8338 25.7753 24.553 27.3835 22.0332 28.8527L17.3307 24.1486C17.193 24.0109 17.0295 23.9016 16.8495 23.8271C16.6696 23.7526 16.4768 23.7142 16.282 23.7142C16.0872 23.7142 15.8944 23.7526 15.7144 23.8271C15.5345 23.9016 15.371 24.0109 15.2333 24.1486C15.0956 24.2863 14.9863 24.4498 14.9118 24.6297C14.8373 24.8096 14.7989 25.0025 14.7989 25.1972C14.7989 25.392 14.8373 25.5848 14.9118 25.7648C14.9863 25.9447 15.0956 26.1082 15.2333 26.2459L19.3262 30.3386C11.7537 34.2645 3.33261 36.901 3.20661 36.9399C3.1154 36.9696 3.02729 37.0081 2.94351 37.0548C2.98821 36.9714 3.02481 36.8839 3.05283 36.7935C3.10656 36.6212 8.24074 20.1967 14.9109 12.5838L21.1679 18.8405C21.446 19.1186 21.8233 19.2749 22.2166 19.2749C22.6099 19.2749 22.9872 19.1186 23.2653 18.8405C23.5434 18.5624 23.6997 18.1852 23.6997 17.7918C23.6997 17.3985 23.5434 17.0213 23.2653 16.7432L17.0583 10.5384C18.8769 9.24456 21.1154 8.68175 23.3296 8.96165C25.5439 9.24156 27.5719 10.3437 29.0113 12.0494C30.4506 13.755 31.196 15.9395 31.0994 18.1691C31.0029 20.3988 30.0716 22.5107 28.4903 24.0856Z" fill="var(--fill-0, #333333)"/>
</svg>
