<svg preserveAspectRatio="none" width="100%" height="100%" overflow="visible" style="display: block;" viewBox="0 0 43 37" fill="none" xmlns="http://www.w3.org/2000/svg">
<path id="Vector" d="M31.0982 0C27.1342 0 23.6634 1.71165 21.5 4.60489C19.3366 1.71165 15.8658 0 11.9018 0C8.74633 0.00357122 5.72113 1.26381 3.48988 3.50423C1.25863 5.74466 0.00355659 8.7823 0 11.9507C0 25.4435 19.924 36.3649 20.7725 36.816C20.9961 36.9368 21.2461 37 21.5 37C21.7539 37 22.0039 36.9368 22.2275 36.816C23.076 36.3649 43 25.4435 43 11.9507C42.9964 8.7823 41.7414 5.74466 39.5101 3.50423C37.2789 1.26381 34.2537 0.00357122 31.0982 0ZM21.5 33.6934C17.9947 31.6425 3.07143 22.2997 3.07143 11.9507C3.07448 9.60009 4.00579 7.34659 5.66115 5.68443C7.3165 4.02227 9.56076 3.08712 11.9018 3.08406C15.6355 3.08406 18.7703 5.08099 20.0795 8.28841C20.1952 8.57124 20.392 8.81314 20.6449 8.98338C20.8979 9.15363 21.1955 9.24452 21.5 9.24452C21.8045 9.24452 22.1021 9.15363 22.3551 8.98338C22.608 8.81314 22.8048 8.57124 22.9205 8.28841C24.2297 5.07521 27.3645 3.08406 31.0982 3.08406C33.4392 3.08712 35.6835 4.02227 37.3389 5.68443C38.9942 7.34659 39.9255 9.60009 39.9286 11.9507C39.9286 22.2843 25.0014 31.6405 21.5 33.6934Z" fill="var(--fill-0, #333333)"/>
</svg>
