<svg preserveAspectRatio="none" width="100%" height="100%" overflow="visible" style="display: block;" viewBox="0 0 57 38" fill="none" xmlns="http://www.w3.org/2000/svg">
<path id="Vector" d="M56.1163 2.85885C55.8427 2.68818 55.5302 2.58991 55.2081 2.5733C54.886 2.55668 54.5651 2.62226 54.2753 2.76387C44.0778 7.75012 36.7948 5.41371 29.0962 2.94908C21.0199 0.363354 12.6466 -2.30785 1.07843 3.33848C0.755209 3.49346 0.482437 3.73666 0.291611 4.04001C0.100785 4.34335 -0.000309692 4.69446 7.12661e-07 5.0528V33.529C-4.46965e-05 33.8513 0.081948 34.1683 0.238262 34.4502C0.394577 34.7321 0.620073 34.9695 0.893528 35.1403C1.16698 35.311 1.47941 35.4094 1.80139 35.4262C2.12338 35.443 2.44434 35.3776 2.73408 35.2362C12.9316 30.25 20.2146 32.5864 27.9251 35.051C32.4954 36.5113 37.1511 38 42.415 38C46.4746 38 50.9023 37.1167 55.9334 34.6616C56.2529 34.5056 56.5223 34.2632 56.7108 33.9618C56.8994 33.6604 56.9995 33.3122 56.9999 32.9568V4.48057C57.0028 4.15744 56.9231 3.83893 56.7685 3.55515C56.6139 3.27137 56.3894 3.03172 56.1163 2.85885ZM53.2088 31.7482C43.5647 36.0625 36.5217 33.8116 29.0843 31.4348C24.5141 29.9745 19.8583 28.4858 14.5944 28.4858C10.8962 28.5037 7.23555 29.2291 3.81013 30.6227V6.26137C13.4542 1.94708 20.4973 4.19801 27.9346 6.57479C35.372 8.95157 43.0279 11.4067 53.2088 7.39158V31.7482ZM28.5047 11.4067C27.0013 11.4067 25.5317 11.8523 24.2817 12.6872C23.0317 13.5221 22.0574 14.7088 21.4821 16.0971C20.9067 17.4855 20.7562 19.0132 21.0495 20.4871C21.3428 21.961 22.0668 23.3148 23.1298 24.3774C24.1929 25.4401 25.5473 26.1637 27.0218 26.4569C28.4963 26.7501 30.0246 26.5996 31.4136 26.0245C32.8025 25.4494 33.9897 24.4756 34.8249 23.2261C35.6602 21.9766 36.106 20.5075 36.106 19.0048C36.106 16.9896 35.3051 15.057 33.8796 13.6321C32.4541 12.2072 30.5207 11.4067 28.5047 11.4067ZM28.5047 22.8038C27.753 22.8038 27.0182 22.581 26.3932 22.1636C25.7682 21.7461 25.281 21.1528 24.9934 20.4586C24.7057 19.7644 24.6305 19.0006 24.7771 18.2636C24.9238 17.5267 25.2857 16.8498 25.8173 16.3185C26.3488 15.7872 27.026 15.4253 27.7632 15.2787C28.5005 15.1322 29.2647 15.2074 29.9592 15.4949C30.6536 15.7825 31.2472 16.2694 31.6648 16.8941C32.0824 17.5189 32.3053 18.2534 32.3053 19.0048C32.3053 20.0124 31.9049 20.9787 31.1922 21.6911C30.4794 22.4036 29.5127 22.8038 28.5047 22.8038ZM11.4019 11.4067V22.8038C11.4019 23.3076 11.2017 23.7908 10.8453 24.147C10.4889 24.5032 10.0056 24.7033 9.50157 24.7033C8.99758 24.7033 8.51422 24.5032 8.15785 24.147C7.80147 23.7908 7.60126 23.3076 7.60126 22.8038V11.4067C7.60126 10.9029 7.80147 10.4198 8.15785 10.0635C8.51422 9.7073 8.99758 9.50718 9.50157 9.50718C10.0056 9.50718 10.4889 9.7073 10.8453 10.0635C11.2017 10.4198 11.4019 10.9029 11.4019 11.4067ZM45.6075 26.6029V15.2057C45.6075 14.702 45.8077 14.2188 46.1641 13.8626C46.5205 13.5063 47.0039 13.3062 47.5079 13.3062C48.0118 13.3062 48.4952 13.5063 48.8516 13.8626C49.208 14.2188 49.4082 14.702 49.4082 15.2057V26.6029C49.4082 27.1067 49.208 27.5898 48.8516 27.946C48.4952 28.3023 48.0118 28.5024 47.5079 28.5024C47.0039 28.5024 46.5205 28.3023 46.1641 27.946C45.8077 27.5898 45.6075 27.1067 45.6075 26.6029Z" fill="var(--fill-0, #333333)"/>
</svg>
