<svg preserveAspectRatio="none" width="100%" height="100%" overflow="visible" style="display: block;" viewBox="0 0 45 41" fill="none" xmlns="http://www.w3.org/2000/svg">
<path id="Vector" d="M19.9038 17.0835C19.9038 16.5767 20.0561 16.0812 20.3414 15.6598C20.6266 15.2384 21.0321 14.91 21.5065 14.716C21.9809 14.5221 22.5029 14.4713 23.0065 14.5702C23.5101 14.6691 23.9727 14.9131 24.3358 15.2715C24.6988 15.6299 24.9461 16.0865 25.0463 16.5835C25.1464 17.0806 25.095 17.5959 24.8985 18.0641C24.702 18.5323 24.3693 18.9326 23.9423 19.2141C23.5154 19.4957 23.0135 19.646 22.5 19.646C21.8115 19.646 21.1511 19.376 20.6642 18.8954C20.1774 18.4149 19.9038 17.7631 19.9038 17.0835ZM12.9808 19.646C13.4942 19.646 13.9962 19.4957 14.4231 19.2141C14.8501 18.9326 15.1828 18.5323 15.3793 18.0641C15.5758 17.5959 15.6272 17.0806 15.527 16.5835C15.4269 16.0865 15.1796 15.6299 14.8165 15.2715C14.4534 14.9131 13.9909 14.6691 13.4873 14.5702C12.9837 14.4713 12.4616 14.5221 11.9873 14.716C11.5129 14.91 11.1074 15.2384 10.8221 15.6598C10.5369 16.0812 10.3846 16.5767 10.3846 17.0835C10.3846 17.7631 10.6581 18.4149 11.145 18.8954C11.6319 19.376 12.2922 19.646 12.9808 19.646ZM32.0192 19.646C32.5327 19.646 33.0346 19.4957 33.4616 19.2141C33.8885 18.9326 34.2213 18.5323 34.4178 18.0641C34.6143 17.5959 34.6657 17.0806 34.5655 16.5835C34.4653 16.0865 34.2181 15.6299 33.855 15.2715C33.4919 14.9131 33.0293 14.6691 32.5257 14.5702C32.0221 14.4713 31.5001 14.5221 31.0257 14.716C30.5513 14.91 30.1459 15.2384 29.8606 15.6598C29.5753 16.0812 29.4231 16.5767 29.4231 17.0835C29.4231 17.7631 29.6966 18.4149 30.1835 18.8954C30.6703 19.376 31.3307 19.646 32.0192 19.646ZM45 3.41669V30.7502C45 31.6564 44.6353 32.5255 43.9861 33.1662C43.337 33.807 42.4565 34.1669 41.5385 34.1669H28.4647L25.505 39.2792C25.2022 39.802 24.7648 40.2364 24.2371 40.5386C23.7094 40.8408 23.1101 41 22.5 41C21.8899 41 21.2906 40.8408 20.7629 40.5386C20.2352 40.2364 19.7978 39.802 19.495 39.2792L16.5353 34.1669H3.46154C2.54348 34.1669 1.66303 33.807 1.01386 33.1662C0.364697 32.5255 0 31.6564 0 30.7502V3.41669C0 2.51053 0.364697 1.64148 1.01386 1.00073C1.66303 0.359972 2.54348 0 3.46154 0H41.5385C42.4565 0 43.337 0.359972 43.9861 1.00073C44.6353 1.64148 45 2.51053 45 3.41669ZM41.5385 3.41669H3.46154V30.7502H17.5392C17.8456 30.7475 18.1473 30.8252 18.4134 30.9753C18.6795 31.1253 18.9004 31.3425 19.0536 31.6044L22.5151 37.5836L25.9767 31.6044C26.1299 31.3425 26.3508 31.1253 26.6169 30.9753C26.883 30.8252 27.1847 30.7475 27.4911 30.7502H41.5385V3.41669Z" fill="var(--fill-0, #333333)"/>
</svg>
