<svg preserveAspectRatio="none" width="100%" height="100%" overflow="visible" style="display: block;" viewBox="0 0 39 37" fill="none" xmlns="http://www.w3.org/2000/svg">
<path id="Vector" d="M39 13.217C39 13.5175 38.8791 13.8056 38.664 14.0181C38.4488 14.2305 38.1569 14.3499 37.8527 14.3499H34.4106V17.7486C34.4106 18.049 34.2897 18.3372 34.0746 18.5496C33.8594 18.7621 33.5676 18.8814 33.2633 18.8814C32.959 18.8814 32.6671 18.7621 32.452 18.5496C32.2368 18.3372 32.1159 18.049 32.1159 17.7486V14.3499H28.6739C28.3696 14.3499 28.0778 14.2305 27.8626 14.0181C27.6474 13.8056 27.5265 13.5175 27.5265 13.217C27.5265 12.9166 27.6474 12.6284 27.8626 12.4159C28.0778 12.2035 28.3696 12.0841 28.6739 12.0841H32.1159V8.68547C32.1159 8.385 32.2368 8.09685 32.452 7.88439C32.6671 7.67194 32.959 7.55258 33.2633 7.55258C33.5676 7.55258 33.8594 7.67194 34.0746 7.88439C34.2897 8.09685 34.4106 8.385 34.4106 8.68547V12.0841H37.8527C38.1569 12.0841 38.4488 12.2035 38.664 12.4159C38.8791 12.6284 39 12.9166 39 13.217ZM21.0249 5.2868H22.9371V7.17495C22.9371 7.47541 23.058 7.76356 23.2732 7.97602C23.4884 8.18848 23.7802 8.30784 24.0845 8.30784C24.3888 8.30784 24.6806 8.18848 24.8958 7.97602C25.111 7.76356 25.2318 7.47541 25.2318 7.17495V5.2868H27.1441C27.4484 5.2868 27.7402 5.16745 27.9554 4.95499C28.1706 4.74253 28.2914 4.45438 28.2914 4.15392C28.2914 3.85346 28.1706 3.5653 27.9554 3.35285C27.7402 3.14039 27.4484 3.02103 27.1441 3.02103H25.2318V1.13289C25.2318 0.832427 25.111 0.544272 24.8958 0.331815C24.6806 0.119357 24.3888 0 24.0845 0C23.7802 0 23.4884 0.119357 23.2732 0.331815C23.058 0.544272 22.9371 0.832427 22.9371 1.13289V3.02103H21.0249C20.7206 3.02103 20.4288 3.14039 20.2136 3.35285C19.9984 3.5653 19.8776 3.85346 19.8776 4.15392C19.8776 4.45438 19.9984 4.74253 20.2136 4.95499C20.4288 5.16745 20.7206 5.2868 21.0249 5.2868ZM34.6496 24.2211C34.7831 24.3747 34.8725 24.5608 34.9085 24.76C34.9445 24.9592 34.9257 25.1643 34.8543 25.354C33.816 28.1539 32.0801 30.6503 29.8067 32.6129C27.5334 34.5755 24.796 35.941 21.8472 36.5833C18.8984 37.2256 15.8332 37.124 12.9347 36.2879C10.0361 35.4518 7.39758 33.9082 5.26268 31.7995C3.12777 29.6908 1.5653 27.085 0.719495 24.2227C-0.126307 21.3604 -0.228174 18.3338 0.423298 15.4224C1.07477 12.5109 2.45858 9.80847 4.44698 7.56447C6.43539 5.32046 8.96429 3.60725 11.8002 2.58298C11.9912 2.51438 12.1972 2.49708 12.3971 2.53285C12.5971 2.56863 12.7838 2.65619 12.9382 2.78659C13.0927 2.91699 13.2093 3.08555 13.2761 3.27503C13.3429 3.46452 13.3576 3.66812 13.3186 3.86503C12.8269 6.32908 12.8937 8.87005 13.5143 11.3056C14.1349 13.7411 15.2939 16.0107 16.908 17.9516C18.5221 19.8925 20.5514 21.4565 22.8502 22.5313C25.149 23.6062 27.6602 24.1652 30.2037 24.1683C31.3289 24.1685 32.4516 24.061 33.5558 23.8473C33.7554 23.8083 33.9618 23.8223 34.154 23.888C34.3462 23.9537 34.5172 24.0687 34.6496 24.2211ZM31.9018 26.3623C31.3383 26.4101 30.7723 26.434 30.2037 26.434C25.0325 26.428 20.0749 24.397 16.4183 20.7865C12.7618 17.1761 10.7049 12.2809 10.6988 7.17495C10.6988 6.6148 10.723 6.05591 10.7715 5.49828C8.58029 6.61685 6.68729 8.23006 5.24629 10.2068C3.80528 12.1836 2.85692 14.4682 2.47826 16.8749C2.0996 19.2817 2.30132 21.7426 3.06704 24.0579C3.83276 26.3732 5.14087 28.4774 6.88508 30.1997C8.62929 31.9219 10.7604 33.2135 13.1052 33.9696C15.45 34.7257 17.9425 34.9248 20.3799 34.551C22.8173 34.1771 25.1311 33.2407 27.1331 31.8178C29.1351 30.395 30.7689 28.5258 31.9018 26.3623Z" fill="var(--fill-0, #333333)"/>
</svg>
