<svg preserveAspectRatio="none" width="100%" height="100%" overflow="visible" style="display: block;" viewBox="0 0 45 42" fill="none" xmlns="http://www.w3.org/2000/svg">
<path id="Vector" d="M41.5385 7H32.8846V5.25C32.8846 3.85761 32.3376 2.52226 31.3638 1.53769C30.3901 0.553124 29.0694 0 27.6923 0H17.3077C15.9306 0 14.6099 0.553124 13.6362 1.53769C12.6624 2.52226 12.1154 3.85761 12.1154 5.25V7H3.46154C2.54348 7 1.66303 7.36875 1.01386 8.02513C0.364697 8.6815 0 9.57174 0 10.5V38.5C0 39.4283 0.364697 40.3185 1.01386 40.9749C1.66303 41.6313 2.54348 42 3.46154 42H41.5385C42.4565 42 43.337 41.6313 43.9861 40.9749C44.6353 40.3185 45 39.4283 45 38.5V10.5C45 9.57174 44.6353 8.6815 43.9861 8.02513C43.337 7.36875 42.4565 7 41.5385 7ZM15.5769 5.25C15.5769 4.78587 15.7593 4.34075 16.0839 4.01256C16.4084 3.68437 16.8487 3.5 17.3077 3.5H27.6923C28.1513 3.5 28.5916 3.68437 28.9161 4.01256C29.2407 4.34075 29.4231 4.78587 29.4231 5.25V7H15.5769V5.25ZM29.4231 10.5V38.5H15.5769V10.5H29.4231ZM3.46154 10.5H12.1154V38.5H3.46154V10.5ZM41.5385 38.5H32.8846V10.5H41.5385V38.5Z" fill="var(--fill-0, #333333)"/>
</svg>
