<svg preserveAspectRatio="none" width="100%" height="100%" overflow="visible" style="display: block;" viewBox="0 0 37 43" fill="none" xmlns="http://www.w3.org/2000/svg">
<path id="Vector" d="M35.3182 0H6.72727C4.94309 0 3.23198 0.696976 1.97037 1.9376C0.708764 3.17823 0 4.86088 0 6.61538V41.3462C0 41.7848 0.177191 42.2054 0.492593 42.5156C0.807996 42.8258 1.23577 43 1.68182 43H31.9545C32.4006 43 32.8284 42.8258 33.1438 42.5156C33.4592 42.2054 33.6364 41.7848 33.6364 41.3462C33.6364 40.9075 33.4592 40.4869 33.1438 40.1767C32.8284 39.8666 32.4006 39.6923 31.9545 39.6923H3.36364C3.36364 38.8151 3.71802 37.9737 4.34882 37.3534C4.97963 36.7331 5.83518 36.3846 6.72727 36.3846H35.3182C35.7642 36.3846 36.192 36.2104 36.5074 35.9002C36.8228 35.5901 37 35.1694 37 34.7308V1.65385C37 1.21522 36.8228 0.794557 36.5074 0.4844C36.192 0.174244 35.7642 0 35.3182 0ZM33.6364 33.0769H6.72727C5.54607 33.0751 4.38548 33.3811 3.36364 33.9638V6.61538C3.36364 5.73813 3.71802 4.89681 4.34882 4.27649C4.97963 3.65618 5.83518 3.30769 6.72727 3.30769H33.6364V33.0769Z" fill="var(--fill-0, #333333)"/>
</svg>
