<svg preserveAspectRatio="none" width="100%" height="100%" overflow="visible" style="display: block;" viewBox="0 0 55.5 37" fill="none" xmlns="http://www.w3.org/2000/svg">
<g id="Group">
<path id="Vector" opacity="0.2" d="M53.65 1.85V31.45C53.65 32.4313 53.2602 33.3724 52.5663 34.0663C51.8724 34.7602 50.9313 35.15 49.95 35.15H14.8V24.05H27.75V12.95H40.7V1.85H53.65Z" fill="var(--fill-0, #333333)"/>
<path id="Vector_2" d="M55.5 1.85C55.5 2.34065 55.3051 2.8112 54.9581 3.15815C54.6112 3.50509 54.1407 3.7 53.65 3.7H42.55V12.95C42.55 13.4407 42.3551 13.9112 42.0081 14.2581C41.6612 14.6051 41.1907 14.8 40.7 14.8H29.6V24.05C29.6 24.5407 29.4051 25.0112 29.0581 25.3581C28.7112 25.7051 28.2407 25.9 27.75 25.9H16.65V35.15C16.65 35.6407 16.4551 36.1112 16.1081 36.4581C15.7612 36.8051 15.2907 37 14.8 37H1.85C1.35935 37 0.888795 36.8051 0.541852 36.4581C0.19491 36.1112 0 35.6407 0 35.15C0 34.6593 0.19491 34.1888 0.541852 33.8419C0.888795 33.4949 1.35935 33.3 1.85 33.3H12.95V24.05C12.95 23.5593 13.1449 23.0888 13.4919 22.7419C13.8388 22.3949 14.3093 22.2 14.8 22.2H25.9V12.95C25.9 12.4593 26.0949 11.9888 26.4419 11.6419C26.7888 11.2949 27.2593 11.1 27.75 11.1H38.85V1.85C38.85 1.35935 39.0449 0.888795 39.3919 0.541853C39.7388 0.194911 40.2093 0 40.7 0H53.65C54.1407 0 54.6112 0.194911 54.9581 0.541853C55.3051 0.888795 55.5 1.35935 55.5 1.85Z" fill="var(--fill-0, #333333)"/>
</g>
</svg>
