<svg preserveAspectRatio="none" width="100%" height="100%" overflow="visible" style="display: block;" viewBox="0 0 38 49" fill="none" xmlns="http://www.w3.org/2000/svg">
<path id="Vector" d="M19 0C13.9627 0.00589472 9.13335 2.02585 5.57143 5.61675C2.0095 9.20764 0.00584715 14.0763 0 19.1545C0 24.2773 2.0414 29.9613 5.45919 34.3601C8.19209 37.877 11.4751 40.2446 14.9702 41.2803L12.4803 47.138C12.3941 47.3411 12.3592 47.5627 12.3788 47.7827C12.3983 48.0028 12.4717 48.2146 12.5923 48.3991C12.7129 48.5835 12.877 48.735 13.0699 48.8399C13.2628 48.9447 13.4785 48.9998 13.6977 49H24.3023C24.5215 48.9998 24.7372 48.9447 24.9301 48.8399C25.123 48.735 25.2871 48.5835 25.4077 48.3991C25.5283 48.2146 25.6017 48.0028 25.6212 47.7827C25.6408 47.5627 25.6059 47.3411 25.5197 47.138L23.0298 41.2803C26.5249 40.2446 29.8079 37.877 32.5298 34.3601C35.9586 29.9613 38 24.2773 38 19.1545C37.9942 14.0763 35.9905 9.20764 32.4286 5.61675C28.8666 2.02585 24.0373 0.00589472 19 0ZM15.5027 41.4273L15.6308 41.4585C15.5868 41.4546 15.5436 41.4441 15.5027 41.4273ZM22.2919 46.3273H15.7081L17.6302 41.8037C18.5411 41.896 19.4589 41.896 20.3698 41.8037L22.2919 46.3273ZM19 39.2C11.5944 39.2 2.65116 30.2575 2.65116 19.1545C2.65116 14.7833 4.37362 10.5911 7.43963 7.50014C10.5056 4.4092 14.664 2.67273 19 2.67273C23.336 2.67273 27.4944 4.4092 30.5604 7.50014C33.6264 10.5911 35.3488 14.7833 35.3488 19.1545C35.3488 30.2575 26.4056 39.2 19 39.2ZM29.8256 18.6913C29.7525 18.7025 29.6786 18.7085 29.6047 18.7091C29.2916 18.7088 28.9888 18.5968 28.7498 18.393C28.5108 18.1891 28.3511 17.9066 28.299 17.5955C27.957 15.649 27.0299 13.8556 25.6433 12.458C24.2566 11.0604 22.4773 10.1263 20.5465 9.78218C20.1996 9.72311 19.8902 9.52754 19.6864 9.2385C19.4825 8.94945 19.4009 8.59061 19.4595 8.24091C19.5181 7.89121 19.7121 7.5793 19.9988 7.37379C20.2855 7.16829 20.6415 7.08602 20.9884 7.14509C23.4597 7.58772 25.7366 8.78455 27.5115 10.5738C29.2863 12.3631 30.4735 14.6586 30.9126 17.15C30.9417 17.3232 30.9367 17.5004 30.8978 17.6716C30.8589 17.8428 30.7869 18.0046 30.686 18.1478C30.585 18.2909 30.4571 18.4126 30.3094 18.5059C30.1618 18.5991 29.9974 18.6621 29.8256 18.6913Z" fill="var(--fill-0, #333333)"/>
</svg>
