<svg preserveAspectRatio="none" width="100%" height="100%" overflow="visible" style="display: block;" viewBox="0 0 37 45" fill="none" xmlns="http://www.w3.org/2000/svg">
<path id="Vector" d="M30.2496 28.6124C29.8135 31.0264 28.6415 33.25 26.8915 34.9839C25.1415 36.7178 22.8974 37.8787 20.4614 38.3104C20.3689 38.3249 20.2755 38.3325 20.1818 38.3333C19.7599 38.3332 19.3535 38.176 19.0432 37.8928C18.7328 37.6096 18.5411 37.2212 18.5062 36.8046C18.4713 36.3879 18.5956 35.9735 18.8546 35.6435C19.1136 35.3135 19.4882 35.0919 19.9043 35.0228C23.3878 34.4416 26.3436 31.5124 26.9343 28.054C27.009 27.6181 27.2554 27.2294 27.6193 26.9735C27.9832 26.7176 28.4348 26.6154 28.8747 26.6894C29.3146 26.7635 29.7068 27.0077 29.9651 27.3683C30.2233 27.7289 30.3264 28.1764 30.2517 28.6124H30.2496ZM37 26.6665C37 31.5289 35.0509 36.1921 31.5815 39.6303C28.1121 43.0684 23.4065 45 18.5 45C13.5935 45 8.88795 43.0684 5.41852 39.6303C1.9491 36.1921 0 31.5289 0 26.6665C0 20.8498 2.3125 14.9019 6.86602 8.98931C7.01016 8.8021 7.19269 8.64727 7.4016 8.53505C7.6105 8.42282 7.84103 8.35574 8.07799 8.33822C8.31496 8.3207 8.55298 8.35314 8.77637 8.43341C8.99977 8.51368 9.20346 8.63995 9.37403 8.8039L14.4447 13.681L19.0697 1.0955C19.1621 0.844489 19.3141 0.619169 19.5127 0.438539C19.7114 0.257908 19.951 0.127262 20.2113 0.0576155C20.4716 -0.0120312 20.745 -0.0186376 21.0084 0.0383535C21.2718 0.0953447 21.5176 0.214263 21.7249 0.385082C26.3226 4.16636 37 14.281 37 26.6665ZM33.6364 26.6665C33.6364 17.0644 26.1123 8.76639 21.399 4.51428L16.7173 17.2373C16.6212 17.4986 16.4606 17.7319 16.2503 17.916C16.0399 18.1001 15.7864 18.2291 15.5128 18.2912C15.2392 18.3534 14.9543 18.3467 14.6841 18.2717C14.4138 18.1968 14.1667 18.0561 13.9654 17.8623L8.4217 12.5331C5.06437 17.3352 3.36364 22.0832 3.36364 26.6665C3.36364 30.6448 4.95836 34.4601 7.79697 37.2732C10.6356 40.0863 14.4856 41.6666 18.5 41.6666C22.5144 41.6666 26.3644 40.0863 29.203 37.2732C32.0416 34.4601 33.6364 30.6448 33.6364 26.6665Z" fill="var(--fill-0, #333333)"/>
</svg>
